<?xml version="1.0" encoding="iso-8859-1"?>
<!-- Uploaded to: SVG Repo, www.svgrepo.com, Generator: SVG Repo Mixer Tools -->
<svg version="1.1" id="Layer_1" xmlns="http://www.w3.org/2000/svg" xmlns:xlink="http://www.w3.org/1999/xlink" 
	 viewBox="0 0 392.545 392.545" xml:space="preserve">
<path style="fill:#FFFFFF;" d="M175.788,190.061c-2.844-7.176,4.396-16.873,13.77-13.834l87.467,29.091h82.747
	c6.012,0,10.925-4.848,10.925-10.796V32.711c0-5.947-4.848-10.796-10.925-10.796H32.725c-6.012,0-10.925,4.848-10.925,10.796
	v161.875c0,5.947,4.848,10.796,10.925,10.796H180.83L175.788,190.061z"/>
<path style="fill:#FFC10D;" d="M203.392,203.83l10.15,30.319h41.438c6.012,0,10.925,4.848,10.925,10.925
	c0,6.077-4.848,10.925-10.925,10.925h-34.133l4.784,14.545h18.489c6.012,0,10.925,4.849,10.925,10.925
	c0,6.012-4.848,10.925-10.925,10.925h-11.184l19.653,58.699l16.679-38.723c4.267-9.374,15.321-7.564,17.713-3.426l49.455,49.39
	l21.721-21.721l-49.455-49.325c-4.719-4.396-4.849-13.834,3.426-17.778l38.788-16.614L203.392,203.83z"/>
<rect x="43.65" y="43.572" style="fill:#56ACE0;" width="305.196" height="139.96"/>
<g>
	<path style="fill:#194F82;" d="M79.852,108.541c-5.042-1.228-8.21-2.327-9.568-3.232c-1.422-0.905-2.069-2.069-2.069-3.62
		s0.776-5.042,6.335-5.107c4.848-0.065,9.568,1.681,14.222,5.172l5.947-8.598c-7.564-6.206-16.226-6.982-19.782-6.982
		c-5.43,0-18.877,2.133-18.877,15.709c0,5.042,1.422,8.663,4.267,11.055c2.844,2.327,7.37,4.267,13.446,5.689
		c3.879,0.905,6.465,1.939,7.822,2.844c1.293,0.905,1.939,2.133,1.939,3.814c0,1.681-0.646,4.848-6.982,5.172
		c-4.784,0.259-10.149-2.457-15.774-7.499l-7.046,8.663c6.723,6.206,14.222,9.568,22.562,9.244
		c16.937-0.646,19.329-11.184,19.329-15.903c0-4.719-1.422-8.339-4.202-10.796C88.709,111.644,84.83,109.77,79.852,108.541z"/>
	<rect x="105.258" y="87.919" style="fill:#194F82;" width="11.572" height="51.911"/>
	<path style="fill:#194F82;" d="M163.569,127.677h-0.065c-2.715,1.552-6.012,2.327-10.02,2.327
		c-11.636,0-14.739-11.313-14.739-16.226c0-4.848,3.491-16.291,15.709-16.291c2.327,0,10.537,3.297,12.8,5.301l6.012-8.663
		c-5.495-4.848-11.96-7.37-19.459-7.37c-9.568,0-27.022,6.465-27.022,26.958c0,19.135,16.162,27.152,27.022,26.764
		c9.115-0.388,16.291-2.844,21.463-8.598v-18.36h-11.636v14.158H163.569z"/>
	<polygon style="fill:#194F82;" points="221.945,121.341 196.41,87.919 185.549,87.919 185.549,139.83 197.121,139.83 
		197.121,107.313 221.945,139.83 233.517,139.83 233.517,87.919 221.945,87.919 	"/>
	<rect x="266.034" y="87.919" style="fill:#194F82;" width="11.572" height="51.911"/>
	<polygon style="fill:#194F82;" points="302.042,107.313 326.866,139.83 338.438,139.83 338.438,87.919 326.866,87.919 
		326.866,121.341 301.266,87.919 290.47,87.919 290.47,139.83 302.042,139.83 	"/>
	<path style="fill:#194F82;" d="M385.048,241.261l-42.408-14.093h17.131c18.036,0,32.711-14.675,32.711-32.582V32.711
		C392.483,14.675,377.808,0,359.771,0H32.725C14.689,0,0.014,14.675,0.014,32.711v161.875c0,17.907,14.675,32.582,32.711,32.582
		h155.41l52.752,157.867c4.396,11.055,17.261,8.663,20.299,0.84l21.657-50.23l45.834,45.64c4.267,4.267,11.119,4.267,15.386,0
		l37.172-37.107c4.008-3.491,4.848-10.667,0-15.451l-45.77-45.64l50.295-21.527C394.422,259.103,395.392,244.234,385.048,241.261z
		 M175.788,190.19l5.107,15.321H32.725c-5.947-0.129-10.925-5.042-10.925-10.99V32.711c0-5.947,4.848-10.796,10.925-10.796h327.111
		c6.012,0,10.925,4.848,10.925,10.796v161.875c0,5.947-4.848,10.796-10.925,10.796h-82.747l-87.467-29.026
		C180.119,173.317,172.943,182.885,175.788,190.19z M312.127,269.446c-8.275,3.943-8.145,13.382-3.426,17.778l49.455,49.325
		l-21.721,21.721l-49.455-49.39c-2.392-4.073-13.446-5.947-17.713,3.426l-16.679,38.723l-19.653-58.699h11.184
		c6.012,0,10.925-4.848,10.925-10.925s-4.848-10.925-10.925-10.925h-18.554l-4.848-14.545h34.069
		c6.012,0,10.925-4.848,10.925-10.925c0-6.012-4.849-10.925-10.925-10.925h-41.438l-10.15-30.319l147.523,49.067L312.127,269.446z"
		/>
</g>
</svg>