<?xml version="1.0" encoding="utf-8"?>

<!-- Uploaded to: SVG Repo, www.svgrepo.com, Generator: SVG Repo Mixer Tools -->
<svg version="1.1" id="Uploaded to svgrepo.com" xmlns="http://www.w3.org/2000/svg" xmlns:xlink="http://www.w3.org/1999/xlink" 
	 width="800px" height="800px" viewBox="0 0 32 32" xml:space="preserve">
<style type="text/css">
		.hatch_een{fill:#009432;}
		.hatch_twee{fill:#00E676;}
</style>
<g>
	<path class="hatch_twee" d="M12.522,3.317L7.478,8.36c0.061-0.091,0.127-0.181,0.167-0.275c0.163-0.393,0.161-0.901,0.126-1.431
		l3.051-3.051c0.162,0.011,0.329,0.028,0.484,0.028c0.348,0,0.671-0.036,0.941-0.148C12.341,3.444,12.431,3.378,12.522,3.317z
		 M17.451,6.387l2.653-2.653c-0.183,0.013-0.37,0.032-0.544,0.032c-0.289,0-0.554-0.036-0.793-0.109l-2.411,2.411
		C16.736,6.138,17.102,6.244,17.451,6.387z M20.67,9.754c0.12,0.378,0.27,0.701,0.305,1.109l2.529-2.529
		c-0.053-0.082-0.115-0.163-0.15-0.248c-0.104-0.252-0.136-0.555-0.14-0.876L20.67,9.754z M5.282,10.557l1.123-1.123
		C5.974,9.792,5.551,10.158,5.282,10.557z M19.768,8.07l3.453-3.453c-0.056-0.262-0.203-0.443-0.38-0.62
		c-0.071-0.071-0.152-0.127-0.238-0.176l-3.516,3.516C19.336,7.561,19.563,7.806,19.768,8.07z M24.727,9.697l-4.442,4.442
		c-0.431,0.882-1.473,1.861-2.188,2.188l-4.405,4.405c0.225,0.266,0.455,0.513,0.695,0.719l11.06-11.06
		C25.24,10.152,24.993,9.922,24.727,9.697z M13.43,6.409l3.979-3.979c-0.216-0.259-0.433-0.522-0.658-0.756L5.669,12.756
		c0.235,0.224,0.498,0.441,0.756,0.658l3.984-3.984C11,8.125,11.708,7.188,13.43,6.409z M23.228,15.196l-4.08,4.08
		c0.111-0.01,0.22-0.022,0.338-0.022c0.332,0,0.685,0.03,1.037,0.06l2.746-2.746C23.229,16.093,23.191,15.619,23.228,15.196z
		 M13.764,16.66l-2.546,2.546c0.32,0.005,0.621,0.039,0.872,0.144c0.085,0.035,0.166,0.097,0.248,0.15l2.529-2.529
		C14.46,16.935,14.142,16.78,13.764,16.66z M11.343,15.082l-3.504,3.504c0.049,0.087,0.092,0.179,0.164,0.25
		c0.177,0.177,0.343,0.34,0.604,0.396l3.469-3.469C11.811,15.558,11.566,15.33,11.343,15.082z M10.414,13.425
		c-0.143-0.348-0.25-0.715-0.319-1.095l-2.455,2.455c0.116,0.382,0.163,0.799,0.129,1.285L10.414,13.425z"/>
	<path class="hatch_een" d="M20,11.5c0,2.479-2.015,4.5-4.5,4.5S11,13.985,11,11.5S13.042,7,15.5,7S20,9.021,20,11.5z M10,11.5
		c0,3.033,2.467,5.5,5.5,5.5s5.5-2.467,5.5-5.5S18.521,6,15.5,6S10,8.467,10,11.5z M25.237,8.828
		c-0.38-0.316-0.852-0.71-0.958-0.964c-0.118-0.284-0.065-0.895-0.019-1.434c0.09-1.051,0.192-2.241-0.628-3.061
		c-0.616-0.616-1.447-0.688-2.018-0.688c-0.349,0-1.654,0.112-1.919,0.112c-0.319,0-0.48-0.039-0.559-0.072
		c-0.254-0.105-0.648-0.578-0.964-0.958C17.517,0.978,16.703,0,15.5,0c-1.203,0-2.017,0.978-2.672,1.763
		c-0.316,0.38-0.71,0.852-0.964,0.958c-0.079,0.033-0.24,0.072-0.558,0.072c-0.265,0-1.57-0.112-1.919-0.112
		c-0.571,0-1.402,0.071-2.018,0.688C6.548,4.188,6.65,5.379,6.74,6.429c0.046,0.539,0.099,1.15-0.019,1.434
		C6.615,8.118,6.143,8.511,5.763,8.828C4.978,9.483,4,10.297,4,11.5s0.978,2.017,1.763,2.672c0.38,0.316,0.852,0.71,0.958,0.964
		c0.118,0.284,0.065,0.895,0.019,1.434c-0.09,1.05-0.192,2.241,0.628,3.061c0.589,0.589,1.369,0.677,1.936,0.684l-3.408,8.446
		c-0.161,0.399-0.048,0.857,0.281,1.135c0.185,0.157,0.416,0.238,0.647,0.238c0.179,0,0.358-0.048,0.518-0.145l2.423-1.469
		l0.732,2.737c0.111,0.416,0.475,0.74,0.906,0.74c0.489,0,0.835-0.245,0.988-0.625L15.5,23.64l3.109,7.733
		c0.153,0.38,0.603,0.625,0.988,0.625c0.43,0,0.794-0.324,0.906-0.74l0.732-2.737l2.423,1.469c0.16,0.097,0.34,0.145,0.518,0.145
		c0.232,0,0.462-0.08,0.647-0.238c0.328-0.279,0.441-0.736,0.281-1.135l-3.363-8.448c0.563-0.011,1.317-0.107,1.891-0.682
		c0.82-0.82,0.718-2.011,0.628-3.061c-0.046-0.539-0.099-1.15,0.019-1.434c0.105-0.254,0.578-0.648,0.958-0.964
		C26.022,13.517,27,12.703,27,11.5S26.022,9.483,25.237,8.828z M11.463,31l-1.076-4.025l-3.563,2.16c0,0,3.59-8.874,3.605-8.875
		c0.314-0.027,0.611-0.052,0.876-0.052c0.319,0,0.48,0.039,0.559,0.072c0.254,0.105,0.648,0.578,0.964,0.958
		c0.506,0.607,1.109,1.323,1.91,1.62L11.463,31z M20.613,26.975L19.537,31l-3.275-8.144c0.801-0.297,1.404-1.013,1.91-1.62
		c0.316-0.38,0.71-0.852,0.964-0.958c0.079-0.033,0.24-0.072,0.558-0.072c0.265,0,0.562,0.025,0.876,0.052
		c0.007,0.001,3.606,8.875,3.606,8.875L20.613,26.975z M23.355,14.753c-0.482,1.161,0.444,3.296-0.431,4.171
		c-0.311,0.311-0.782,0.395-1.311,0.395c-0.613,0-1.304-0.112-1.919-0.112c-0.348,0-0.671,0.036-0.941,0.148
		C17.633,19.82,16.788,22,15.5,22c-1.288,0-2.133-2.18-3.253-2.645c-0.27-0.112-0.594-0.148-0.942-0.148
		c-0.615,0-1.306,0.112-1.918,0.112c-0.529,0-1-0.083-1.311-0.395c-0.875-0.875,0.051-3.01-0.431-4.171C7.18,13.633,5,12.788,5,11.5
		c0-1.288,2.18-2.133,2.645-3.253C8.126,7.085,7.2,4.95,8.075,4.075c0.311-0.311,0.782-0.395,1.311-0.395
		c0.613,0,1.304,0.112,1.919,0.112c0.348,0,0.671-0.036,0.941-0.148C13.367,3.18,14.212,1,15.5,1c1.288,0,2.133,2.18,3.253,2.645
		c0.27,0.112,0.594,0.148,0.942,0.148c0.615,0,1.306-0.112,1.918-0.112c0.529,0,1,0.083,1.311,0.395
		c0.875,0.875-0.051,3.01,0.431,4.171C23.82,9.367,26,10.212,26,11.5C26,12.788,23.82,13.633,23.355,14.753z"/>
</g>
</svg>