<?xml version="1.0" encoding="utf-8"?><!-- Uploaded to: SVG Repo, www.svgrepo.com, Generator: SVG Repo Mixer Tools -->
<svg version="1.1" id="Uploaded to svgrepo.com" xmlns="http://www.w3.org/2000/svg" xmlns:xlink="http://www.w3.org/1999/xlink" 
	 width="800px" height="800px" viewBox="0 0 32 32" xml:space="preserve">
<style type="text/css">
		.sharpcorners_een{fill:#009432;}
		.st0{fill:#009432;}
</style>
<path class="sharpcorners_een" d="M16.716,22.964L12.928,31l-1.964-4.598L6,27l4.014-5.784C11.739,22.34,13.792,23,16,23
	C16.242,23,16.478,22.979,16.716,22.964z M22.029,21.19c-1.232,0.811-2.635,1.374-4.143,1.637l-1.302,2.763l2.55,5.41l1.964-4.598
	L26.062,27L22.029,21.19z M6,12C6,6.477,10.477,2,16,2s10,4.477,10,10c0,5.523-4.477,10-10,10S6,17.523,6,12z M8,12
	c0,4.418,3.582,8,8,8s8-3.582,8-8s-3.582-8-8-8S8,7.582,8,12z M9,12c0-3.86,3.14-7,7-7s7,3.14,7,7s-3.14,7-7,7S9,15.86,9,12z
	 M12.853,11.294l1.573,1.534l-0.371,2.166L16,13.97l1.945,1.022l-0.371-2.166l1.573-1.534l-2.174-0.316L16,9.007l-0.972,1.97
	L12.853,11.294z"/>
</svg>